HIERARCHY
ROOT SpineBase
{
  OFFSET 0.000000 0.000000 0.000000
  CHANNELS 6 Xposition Yposition Zposition Zrotation Xrotation Yrotation
  JOINT SpineMid
  {
    OFFSET 0.000000 31.591461 0.000000
    CHANNELS 3 Zrotation Xrotation Yrotation
    JOINT SpineShoulder
    {
      OFFSET -0.065796 23.410448 -0.769335
      CHANNELS 3 Zrotation Xrotation Yrotation
      JOINT Neck
      {
        OFFSET -0.004109 7.747452 -0.591014
        CHANNELS 3 Zrotation Xrotation Yrotation
        JOINT Head
        {
          OFFSET -4.697462 13.407854 1.852336
          CHANNELS 3 Zrotation Xrotation Yrotation
          End Site
          {
            OFFSET 0 0 0
          }
        }
      }
      JOINT ShoulderLeft
      {
        OFFSET -16.171804 -4.907534 9.206031
        CHANNELS 3 Zrotation Xrotation Yrotation
        JOINT ElbowLeft
        {
          OFFSET -2.764843 -25.014667 1.999252
          CHANNELS 3 Zrotation Xrotation Yrotation
          JOINT WristLeft
          {
            OFFSET 0.674961 -25.326757 -0.296189
            CHANNELS 3 Zrotation Xrotation Yrotation
            JOINT HandLeft
            {
              OFFSET 0.588088 -11.295966 0.157602
              CHANNELS 3 Zrotation Xrotation Yrotation
              JOINT HandTipLeft
              {
                OFFSET 0.499455 -6.243520 -3.153551
                CHANNELS 3 Zrotation Xrotation Yrotation
                End Site
                {
                  OFFSET 0 0 0
                }
              }
              JOINT ThumbLeft
              {
                OFFSET 2.095096 -0.190614 -1.769916
                CHANNELS 3 Zrotation Xrotation Yrotation
                End Site
                {
                  OFFSET 0 0 0
                }
              }
            }
          }
        }
      }
      JOINT ShoulderRight
      {
        OFFSET 12.986964 -3.626026 -8.577241
        CHANNELS 3 Zrotation Xrotation Yrotation
        JOINT ElbowRight
        {
          OFFSET 7.515790 -24.325670 -3.878575
          CHANNELS 3 Zrotation Xrotation Yrotation
          JOINT WristRight
          {
            OFFSET 1.914775 -23.463493 -6.462743
            CHANNELS 3 Zrotation Xrotation Yrotation
            JOINT HandRight
            {
              OFFSET -0.255010 -6.146958 -2.095161
              CHANNELS 3 Zrotation Xrotation Yrotation
              JOINT HandTipRight
              {
                OFFSET -0.559914 -6.880855 -1.009784
                CHANNELS 3 Zrotation Xrotation Yrotation
                End Site
                {
                  OFFSET 0 0 0
                }
              }
              JOINT ThumbRight
              {
                OFFSET -3.010865 -1.852261 -1.679684
                CHANNELS 3 Zrotation Xrotation Yrotation
                End Site
                {
                  OFFSET 0 0 0
                }
              }
            }
          }
        }
      }
    }
  }
  JOINT HipLeft
  {
    OFFSET -6.232917 -0.164607 -0.309790
    CHANNELS 3 Zrotation Xrotation Yrotation
    JOINT KneeLeft
    {
      OFFSET 2.380608 -37.682677 5.967768
      CHANNELS 3 Zrotation Xrotation Yrotation
      JOINT AnkleLeft
      {
        OFFSET 8.777203 -34.756948 7.956360
        CHANNELS 3 Zrotation Xrotation Yrotation
        JOINT FootLeft
        {
          OFFSET -2.755145 -7.486827 -5.599561
          CHANNELS 3 Zrotation Xrotation Yrotation
          End Site
          {
            OFFSET 0 0 0
          }
        }
      }
    }
  }
  JOINT HipRight
  {
    OFFSET 6.955095 1.843590 -6.656663
    CHANNELS 3 Zrotation Xrotation Yrotation
    JOINT KneeRight
    {
      OFFSET 8.904346 -35.492922 -1.762271
      CHANNELS 3 Zrotation Xrotation Yrotation
      JOINT AnkleRight
      {
        OFFSET 8.916809 -36.335962 7.103365
        CHANNELS 3 Zrotation Xrotation Yrotation
        JOINT FootRight
        {
          OFFSET -4.916081 -3.791266 -12.010397
          CHANNELS 3 Zrotation Xrotation Yrotation
          End Site
          {
            OFFSET 0 0 0
          }
        }
      }
    }
  }
}
MOTION
Frames: 14
Frame Time: 0.033333
-35.506603 81.305454 328.937693 -0.000000 0.000000 25.699688 -0.000000 0.000000 -25.699688 -0.000000 0.000000 0.000000 -0.000000 0.000000 0.000000 0.000000 0.000000 0.000000 -0.000000 0.000000 0.000000 -0.000000 0.000000 0.000000 -0.000000 0.000000 0.000000 -0.000000 0.000000 0.000000 0.000000 0.000000 0.000000 0.000000 0.000000 0.000000 -0.000000 0.000000 0.000000 -0.000000 0.000000 0.000000 -0.000000 0.000000 0.000000 -0.000000 0.000000 0.000000 0.000000 0.000000 0.000000 0.000000 0.000000 0.000000 -0.000000 0.000000 -25.699688 -0.000000 0.000000 0.000000 -0.000000 0.000000 0.000000 0.000000 0.000000 0.000000 -0.000000 0.000000 -25.699688 -0.000000 0.000000 0.000000 -0.000000 0.000000 0.000000 0.000000 0.000000 0.000000
-35.700672 81.310071 329.051077 -0.162075 -0.209911 25.245556 0.236122 0.120737 -25.246101 -0.000000 0.000000 0.000000 -0.000000 0.000000 0.000000 0.000000 0.000000 0.000000 -0.000000 0.000000 0.000000 -0.000000 0.000000 0.000000 -0.202224 0.992113 0.050593 0.966749 -2.339399 -0.522138 0.000000 0.000000 0.000000 0.000000 0.000000 0.000000 -0.000000 0.000000 0.000000 -0.000000 0.000000 0.000000 1.636596 -1.643344 -0.468777 -0.651983 1.390019 0.363262 0.000000 0.000000 0.000000 0.000000 0.000000 0.000000 0.236122 0.120737 -25.246101 -0.000000 0.000000 0.000000 -0.632623 -0.483948 0.649304 0.000000 0.000000 0.000000 0.236122 0.120737 -25.246101 -0.000000 0.000000 0.000000 -0.000000 0.000000 0.000000 0.000000 0.000000 0.000000
-35.835842 81.312550 329.104681 -0.279306 -0.376593 24.865627 0.411770 0.224230 -24.867350 -0.000000 0.000000 0.000000 -0.000000 0.000000 0.000000 0.000000 0.000000 0.000000 1.166409 0.439103 0.040281 -0.663332 0.390387 -0.032791 -1.214277 1.154831 0.075565 2.190299 -4.302074 -0.941899 0.000000 0.000000 0.000000 0.000000 0.000000 0.000000 -0.000000 0.000000 0.000000 0.225698 1.221592 0.035013 2.802958 -4.709912 -0.779520 -1.228888 2.972752 0.655207 0.000000 0.000000 0.000000 0.000000 0.000000 0.000000 0.411770 0.224230 -24.867350 -0.000000 0.000000 0.000000 -1.169186 -0.803194 1.163565 0.000000 0.000000 0.000000 1.425067 0.602888 -24.719610 -0.762174 -0.767608 -0.160160 -0.000000 0.000000 0.000000 0.000000 0.000000 0.000000
-35.912110 81.312892 329.098508 -0.351765 -0.500129 24.561818 0.527833 0.308642 -24.564775 -0.000000 0.000000 0.000000 -0.000000 0.000000 0.000000 0.000000 0.000000 0.000000 1.575519 0.726519 0.035709 -1.041243 0.545587 -0.027201 -2.071241 1.713594 0.106423 3.675157 -5.867562 -1.253373 0.000000 0.000000 0.000000 0.000000 0.000000 0.000000 0.673738 0.759234 0.122340 -0.295406 0.826736 -0.105900 3.794746 -7.098059 -0.922843 -1.680748 4.729826 0.864506 0.000000 0.000000 0.000000 0.000000 0.000000 0.000000 1.554472 0.506785 -24.398844 -0.853151 -0.604446 -0.177737 -1.609491 -0.951177 1.542042 0.000000 0.000000 0.000000 1.841497 0.779692 -24.382836 -1.002190 -0.971158 -0.202910 -0.000000 0.000000 0.000000 0.000000 0.000000 0.000000
-35.929479 81.311095 329.032556 -0.379504 -0.580586 24.335514 0.585042 0.372597 -24.339339 -0.539069 -0.632083 -0.044413 0.644525 1.501496 0.325833 0.000000 0.000000 0.000000 2.407235 1.692220 0.032937 -1.450131 0.674271 -0.006962 -3.113695 2.273037 0.136246 5.431924 -7.029501 -1.451237 0.000000 0.000000 0.000000 0.000000 0.000000 0.000000 1.346160 1.509595 0.164944 -0.253558 0.904262 -0.154622 4.507906 -9.476355 -0.928736 -1.968567 6.640362 0.978747 0.000000 0.000000 0.000000 0.000000 0.000000 0.000000 1.793270 0.564183 -24.144824 -1.686827 -1.289096 -0.530131 -1.291209 -0.308202 2.110583 0.000000 0.000000 0.000000 2.063999 0.866115 -24.146976 -1.617001 -1.683420 -0.475967 0.463841 0.632184 0.243278 0.000000 0.000000 0.000000
-35.887947 81.307161 328.906826 -0.362552 -0.618009 24.187593 0.583950 0.415189 -24.191664 -0.583742 -0.676735 -0.048316 0.809378 1.767245 0.386411 0.000000 0.000000 0.000000 2.629586 2.114144 -0.003616 -1.890284 0.776361 0.027568 -4.363565 2.842824 0.167855 7.476991 -7.795394 -1.529915 0.000000 0.000000 0.000000 0.000000 0.000000 0.000000 1.480016 1.603981 0.166182 -0.143181 0.879440 -0.208999 4.942119 -11.821872 -0.817308 -2.061419 8.679834 0.984307 0.000000 0.000000 0.000000 0.000000 0.000000 0.000000 1.892803 0.560086 -23.980830 -1.995431 -1.452771 -0.640303 -1.345052 0.063691 2.311719 0.000000 0.000000 0.000000 2.094037 0.858785 -24.011609 -1.782600 -1.784944 -0.523650 0.576435 0.770766 0.297983 0.000000 0.000000 0.000000
-35.754124 81.297453 328.692693 -0.260446 -0.599221 24.194219 0.483160 0.439836 -24.197435 -0.587800 -0.664426 -0.048580 1.005857 1.977078 0.432684 0.000000 0.000000 0.000000 2.596823 2.643279 -0.074473 -2.297988 0.740747 0.096261 -6.536861 3.440248 0.199990 11.348385 -8.273896 -1.733518 0.000000 0.000000 0.000000 0.000000 0.000000 0.000000 1.524803 1.558552 0.149506 0.073538 0.580306 -0.287794 5.257272 -14.547520 -0.579433 -1.416095 11.981569 0.590168 0.000000 0.000000 0.000000 0.000000 0.000000 0.000000 1.772051 0.481454 -23.988508 -2.251504 -1.526279 -0.738529 -1.350370 0.639563 2.443061 0.000000 0.000000 0.000000 1.795315 0.677547 -24.075827 -1.797311 -1.620482 -0.505221 0.688520 0.874353 0.343922 0.000000 0.000000 0.000000
-35.565327 81.285269 328.417485 -0.124029 -0.541711 24.272147 0.335755 0.442836 -24.274031 -0.000000 0.000000 0.000000 0.634624 1.569205 0.451707 0.000000 0.000000 0.000000 1.877031 2.472867 -0.164431 -2.872959 0.777815 0.167047 -8.359675 4.118713 0.254821 14.476949 -6.616702 -1.517485 0.000000 0.000000 0.000000 0.000000 0.000000 0.000000 0.907066 0.771164 0.087226 0.360552 0.322446 -0.353276 5.269041 -17.009379 -0.273591 -1.567200 13.864807 0.576527 0.000000 0.000000 0.000000 0.000000 0.000000 0.000000 1.520525 0.316053 -24.079131 -2.455942 -1.496456 -0.816381 -1.297707 1.639439 2.370559 0.000000 0.000000 0.000000 1.313481 0.406808 -24.233757 -1.724448 -1.312624 -0.454147 0.810667 0.950564 0.384983 0.000000 0.000000 0.000000
-35.348860 81.272598 328.106407 0.025490 -0.403830 24.324150 0.143112 0.378481 -24.324533 -0.000000 0.000000 0.000000 0.802688 1.646000 0.452282 0.000000 0.000000 0.000000 1.767501 3.057524 -0.244864 -3.496332 0.822134 0.240607 -10.390741 4.211466 0.222132 17.596155 -5.907098 -1.272108 0.000000 0.000000 0.000000 0.000000 0.000000 0.000000 0.851816 0.602276 0.045645 0.653203 0.058709 -0.407064 4.844537 -19.407330 0.124487 -1.443622 15.099574 0.506085 0.000000 0.000000 0.000000 0.000000 0.000000 0.000000 1.188494 0.063654 -24.148156 -2.641503 -1.456798 -0.893608 -0.900512 2.631461 2.060148 0.000000 0.000000 0.000000 0.143112 0.378481 -24.324533 -0.928441 -1.048990 -0.447521 0.920377 1.056073 0.430539 0.000000 0.000000 0.000000
-35.122674 81.257528 327.792888 0.173675 -0.286464 24.338411 -0.040182 0.332581 -24.337860 -0.000000 0.000000 0.000000 1.021324 1.865471 0.493244 0.000000 0.000000 0.000000 1.609462 3.501690 -0.308951 -4.104925 0.896474 0.300553 -11.907278 5.190627 0.348205 17.862474 -6.281326 -0.060631 0.000000 0.000000 0.000000 0.000000 0.000000 0.000000 0.795390 0.411736 -0.002460 0.922166 -0.157922 -0.446290 4.070819 -20.708082 0.461381 -0.097859 17.044538 -0.294242 0.000000 0.000000 0.000000 0.000000 0.000000 0.000000 0.872364 -0.138289 -24.180441 -2.812180 -1.482506 -0.979223 -0.214605 3.824349 1.465907 0.000000 0.000000 0.000000 -0.040182 0.332581 -24.337860 -1.032290 -1.229570 -0.514688 1.021443 1.238595 0.492569 0.000000 0.000000 0.000000
-34.919979 81.240661 327.512240 0.275817 -0.236532 24.299583 -0.154050 0.329076 -24.298572 -0.000000 0.000000 0.000000 1.280495 2.242270 0.579868 0.000000 0.000000 0.000000 1.435306 3.725854 -0.345301 -4.683649 1.315987 0.356506 -13.344764 5.758123 0.406138 17.721544 -7.641363 1.123047 0.000000 0.000000 0.000000 0.000000 0.000000 0.000000 -0.000000 0.000000 0.000000 1.855535 -0.117514 -0.518275 3.439650 -21.340694 0.689420 0.857297 18.511696 -0.916761 0.000000 0.000000 0.000000 0.000000 0.000000 0.000000 0.645298 -0.256287 -24.158590 -2.953368 -1.566836 -1.065560 -0.169734 4.077643 1.676711 0.000000 0.000000 0.000000 -0.154050 0.329076 -24.298572 -1.127100 -1.446915 -0.589631 1.112512 1.458161 0.561241 0.000000 0.000000 0.000000
-34.759135 81.224137 327.288267 0.349735 -0.205034 24.254226 -0.234643 0.330599 -24.252923 -0.000000 0.000000 0.000000 1.497719 2.703806 0.699690 0.000000 0.000000 0.000000 1.245357 3.756617 -0.358036 -5.244717 2.003388 0.416255 -13.460152 6.090433 0.425089 16.623358 -8.304074 2.003992 0.000000 0.000000 0.000000 0.000000 0.000000 0.000000 -0.000000 0.000000 0.000000 1.918347 -0.424926 -0.555802 2.951387 -21.303496 0.810066 0.819251 17.172568 -0.728272 0.000000 0.000000 0.000000 0.000000 0.000000 0.000000 0.461025 -0.320545 -24.129740 -3.029339 -1.642060 -1.126742 -0.096044 4.297173 1.789551 0.000000 0.000000 0.000000 -0.234643 0.330599 -24.252923 -1.195262 -1.674555 -0.661900 1.365438 1.846581 -0.184223 0.000000 0.000000 0.000000
-34.634435 81.215095 327.099352 0.388409 -0.175633 24.142406 -0.282605 0.319128 -24.141023 -0.000000 0.000000 0.000000 1.637309 2.940376 0.755678 0.000000 0.000000 0.000000 1.054898 3.846944 -0.377871 -5.667203 2.264617 0.461199 -12.666489 6.169458 0.436698 14.206322 -7.331260 2.850863 0.000000 0.000000 0.000000 0.000000 0.000000 0.000000 -0.000000 0.000000 0.000000 1.934897 -0.692187 -0.577954 2.695336 -20.625757 0.821627 0.545443 16.110649 -0.489677 0.000000 0.000000 0.000000 0.000000 0.000000 0.000000 0.361078 -0.363327 -24.026369 -3.126012 -1.774984 -1.197486 -0.114440 4.423077 1.999265 0.000000 0.000000 0.000000 -0.282605 0.319128 -24.141023 -1.228831 -1.907373 -0.728339 1.409345 2.096140 -0.192422 0.000000 0.000000 0.000000
-34.550453 81.202038 326.926826 0.376430 -0.152076 24.086032 -0.281596 0.292456 -24.084814 -0.000000 0.000000 0.000000 1.755460 3.070879 0.779463 0.000000 0.000000 0.000000 0.929908 3.898652 -0.389816 -5.959724 2.404580 0.488974 -11.198023 6.294125 0.479520 10.620742 -8.181024 3.485475 0.000000 0.000000 0.000000 0.000000 0.000000 0.000000 -0.000000 0.000000 0.000000 1.825648 -0.892055 -0.561951 1.864977 -19.117634 0.847458 1.311027 13.829051 -0.649689 0.000000 0.000000 0.000000 0.000000 0.000000 0.000000 0.380045 -0.388284 -23.966920 -3.293864 -1.988763 -1.293869 -0.133607 4.517874 2.253807 0.000000 0.000000 0.000000 -0.685805 -0.456049 -24.295162 -1.187587 -1.291748 -0.564473 1.446734 2.342522 -0.204588 0.000000 0.000000 0.000000
